<svg width="103" height="65" viewBox="0 0 103 65" fill="none" xmlns="http://www.w3.org/2000/svg">
<path d="M16.416 8.31605C15.408 7.76405 14.376 7.30805 13.32 6.94805C12.288 6.58805 11.316 6.40805 10.404 6.40805C9.27602 6.40805 8.38802 6.63605 7.74002 7.09205C7.09202 7.54805 6.76802 8.23205 6.76802 9.14405C6.76802 9.76805 7.00802 10.3321 7.48802 10.8361C7.99202 11.3161 8.62802 11.7481 9.39602 12.1321C10.188 12.5161 11.004 12.8641 11.844 13.1761C12.612 13.4641 13.368 13.8121 14.112 14.2201C14.88 14.6041 15.564 15.0961 16.164 15.6961C16.764 16.2721 17.244 17.0041 17.604 17.8921C17.964 18.7561 18.144 19.8241 18.144 21.0961C18.144 22.4401 17.796 23.6881 17.1 24.8401C16.404 25.9921 15.384 26.9281 14.04 27.6481C12.696 28.3441 11.04 28.6921 9.07202 28.6921C8.06402 28.6921 7.03202 28.5961 5.97602 28.4041C4.94402 28.1881 3.92402 27.8761 2.91602 27.4681C1.90802 27.0361 0.936023 26.4961 2.25157e-05 25.8481L2.30402 21.7801C2.92802 22.2361 3.60002 22.6441 4.32002 23.0041C5.06402 23.3401 5.80802 23.6041 6.55202 23.7961C7.29602 23.9881 7.98002 24.0841 8.60402 24.0841C9.22802 24.0841 9.85202 24.0001 10.476 23.8321C11.124 23.6401 11.652 23.3281 12.06 22.8961C12.492 22.4641 12.708 21.8641 12.708 21.0961C12.708 20.5681 12.528 20.0881 12.168 19.6561C11.832 19.2241 11.364 18.8281 10.764 18.4681C10.188 18.1081 9.55202 17.7961 8.85602 17.5321C8.04002 17.2201 7.20002 16.8601 6.33602 16.4521C5.47202 16.0441 4.65602 15.5521 3.88802 14.9761C3.14402 14.3761 2.53202 13.6441 2.05202 12.7801C1.59602 11.8921 1.36802 10.8121 1.36802 9.54005C1.36802 8.00405 1.70402 6.67205 2.37602 5.54405C3.07202 4.41605 4.04402 3.52805 5.29202 2.88005C6.54002 2.20805 7.98002 1.83605 9.61202 1.76405C11.748 1.76405 13.476 2.01605 14.796 2.52005C16.14 3.02405 17.34 3.62405 18.396 4.32005L16.416 8.31605ZM21.2043 20.3401C21.2043 18.7321 21.5763 17.2921 22.3203 16.0201C23.0883 14.7481 24.1563 13.7521 25.5243 13.0321C26.8923 12.2881 28.4643 11.9161 30.2403 11.9161C32.0403 11.9161 33.6003 12.2881 34.9203 13.0321C36.2403 13.7521 37.2483 14.7481 37.9443 16.0201C38.6643 17.2921 39.0243 18.7321 39.0243 20.3401C39.0243 21.9481 38.6643 23.4001 37.9443 24.6961C37.2483 25.9681 36.2403 26.9761 34.9203 27.7201C33.6003 28.4641 32.0163 28.8361 30.1683 28.8361C28.4403 28.8361 26.8923 28.5001 25.5243 27.8281C24.1803 27.1561 23.1243 26.1841 22.3563 24.9121C21.5883 23.6401 21.2043 22.1161 21.2043 20.3401ZM26.2803 20.3761C26.2803 21.1921 26.4483 21.9361 26.7843 22.6081C27.1203 23.2561 27.5763 23.7721 28.1523 24.1561C28.7283 24.5401 29.3763 24.7321 30.0963 24.7321C30.8883 24.7321 31.5723 24.5401 32.1483 24.1561C32.7243 23.7721 33.1683 23.2561 33.4803 22.6081C33.7923 21.9361 33.9483 21.1921 33.9483 20.3761C33.9483 19.5361 33.7923 18.7921 33.4803 18.1441C33.1683 17.4961 32.7243 16.9801 32.1483 16.5961C31.5723 16.2121 30.8883 16.0201 30.0963 16.0201C29.3763 16.0201 28.7283 16.2121 28.1523 16.5961C27.5763 16.9801 27.1203 17.4961 26.7843 18.1441C26.4483 18.7921 26.2803 19.5361 26.2803 20.3761ZM48.0707 29.1601C46.6547 29.1601 45.4667 28.7281 44.5067 27.8641C43.5467 26.9761 43.0427 25.8361 42.9947 24.4441V12.6721H48.0347V22.5721C48.0827 23.2681 48.2627 23.8321 48.5747 24.2641C48.8867 24.6721 49.4147 24.8761 50.1587 24.8761C50.9027 24.8761 51.5387 24.6241 52.0667 24.1201C52.6187 23.6161 53.0387 22.9321 53.3267 22.0681C53.6387 21.1801 53.7947 20.1841 53.7947 19.0801V12.6721H58.8347V28.4041H54.2627L53.8667 25.5241L53.9387 25.8481C53.5787 26.4961 53.1227 27.0721 52.5707 27.5761C52.0187 28.0801 51.3587 28.4641 50.5907 28.7281C49.8467 29.0161 49.0067 29.1601 48.0707 29.1601ZM68.5901 12.6721L68.9861 15.4801L68.9141 15.2281C69.4661 14.2441 70.2461 13.4521 71.2541 12.8521C72.2621 12.2281 73.4981 11.9161 74.9621 11.9161C76.4501 11.9161 77.6861 12.3601 78.6701 13.2481C79.6781 14.1121 80.1941 15.2401 80.2181 16.6321V28.4041H75.1781V18.5041C75.1541 17.8081 74.9621 17.2561 74.6021 16.8481C74.2661 16.4161 73.6901 16.2001 72.8741 16.2001C72.1061 16.2001 71.4341 16.4521 70.8581 16.9561C70.2821 17.4601 69.8381 18.1441 69.5261 19.0081C69.2141 19.8721 69.0581 20.8681 69.0581 21.9961V28.4041H64.0181V12.6721H68.5901ZM91.8011 28.8361C90.3371 28.8361 89.0291 28.5001 87.8771 27.8281C86.7251 27.1321 85.8131 26.1361 85.1411 24.8401C84.4931 23.5441 84.1691 22.0081 84.1691 20.2321C84.1691 18.4561 84.5291 16.9441 85.2491 15.6961C85.9691 14.4481 86.9531 13.5001 88.2011 12.8521C89.4491 12.2041 90.8651 11.8801 92.4491 11.8801C93.4571 11.8801 94.4171 12.0361 95.3291 12.3481C96.2651 12.6601 97.0451 13.1401 97.6691 13.7881V15.3721V5.14984e-05H102.673V28.4041H97.6331V25.3441L98.0291 26.4241C97.2131 27.0961 96.3011 27.6721 95.2931 28.1521C94.2851 28.6081 93.1211 28.8361 91.8011 28.8361ZM93.4571 24.5881C94.1291 24.5881 94.7171 24.5041 95.2211 24.3361C95.7491 24.1441 96.2051 23.8801 96.5891 23.5441C96.9971 23.1841 97.3451 22.7401 97.6331 22.2121V18.3601C97.4411 17.8321 97.1411 17.3881 96.7331 17.0281C96.3491 16.6441 95.8691 16.3561 95.2931 16.1641C94.7411 15.9481 94.1291 15.8401 93.4571 15.8401C92.7131 15.8401 92.0171 16.0321 91.3691 16.4161C90.7451 16.7761 90.2411 17.2801 89.8571 17.9281C89.4731 18.5761 89.2811 19.3201 89.2811 20.1601C89.2811 21.0001 89.4731 21.7561 89.8571 22.4281C90.2411 23.1001 90.7451 23.6281 91.3691 24.0121C92.0171 24.3961 92.7131 24.5881 93.4571 24.5881ZM11.3735 64.4041V36.8281H11.4095L26.1335 57.7081L23.9015 57.2041L38.5895 36.8281H38.6615V64.4041H33.4415V48.6001L33.7655 51.3001L24.8015 64.0441H24.7295L15.5135 51.3001L16.4135 48.8161V64.4041H11.3735ZM44.6822 48.6721H49.7222V64.4041H44.6822V48.6721ZM44.5742 43.0921C44.5742 42.3481 44.8622 41.7361 45.4382 41.2561C46.0382 40.7761 46.6742 40.5361 47.3462 40.5361C48.0182 40.5361 48.6302 40.7761 49.1822 41.2561C49.7582 41.7361 50.0462 42.3481 50.0462 43.0921C50.0462 43.8361 49.7582 44.4481 49.1822 44.9281C48.6302 45.3841 48.0182 45.6121 47.3462 45.6121C46.6742 45.6121 46.0382 45.3841 45.4382 44.9281C44.8622 44.4481 44.5742 43.8361 44.5742 43.0921ZM59.4847 48.6721L59.8807 51.4801L59.8087 51.2281C60.3607 50.2441 61.1407 49.4521 62.1487 48.8521C63.1567 48.2281 64.3927 47.9161 65.8567 47.9161C67.3447 47.9161 68.5807 48.3601 69.5647 49.2481C70.5727 50.1121 71.0887 51.2401 71.1127 52.6321V64.4041H66.0727V54.5041C66.0487 53.8081 65.8567 53.2561 65.4967 52.8481C65.1607 52.4161 64.5847 52.2001 63.7687 52.2001C63.0007 52.2001 62.3287 52.4521 61.7527 52.9561C61.1767 53.4601 60.7327 54.1441 60.4207 55.0081C60.1087 55.8721 59.9527 56.8681 59.9527 57.9961V64.4041H54.9127V48.6721H59.4847ZM82.6957 64.8361C81.2317 64.8361 79.9237 64.5001 78.7717 63.8281C77.6197 63.1321 76.7077 62.1361 76.0357 60.8401C75.3877 59.5441 75.0637 58.0081 75.0637 56.2321C75.0637 54.4561 75.4237 52.9441 76.1437 51.6961C76.8637 50.4481 77.8477 49.5001 79.0957 48.8521C80.3437 48.2041 81.7597 47.8801 83.3437 47.8801C84.3517 47.8801 85.3117 48.0361 86.2237 48.3481C87.1597 48.6601 87.9397 49.1401 88.5637 49.7881V51.3721V36.0001H93.5677V64.4041H88.5277V61.3441L88.9237 62.4241C88.1077 63.0961 87.1957 63.6721 86.1877 64.1521C85.1797 64.6081 84.0157 64.8361 82.6957 64.8361ZM84.3517 60.5881C85.0237 60.5881 85.6117 60.5041 86.1157 60.3361C86.6437 60.1441 87.0997 59.8801 87.4837 59.5441C87.8917 59.1841 88.2397 58.7401 88.5277 58.2121V54.3601C88.3357 53.8321 88.0357 53.3881 87.6277 53.0281C87.2437 52.6441 86.7637 52.3561 86.1877 52.1641C85.6357 51.9481 85.0237 51.8401 84.3517 51.8401C83.6077 51.8401 82.9117 52.0321 82.2637 52.4161C81.6397 52.7761 81.1357 53.2801 80.7517 53.9281C80.3677 54.5761 80.1757 55.3201 80.1757 56.1601C80.1757 57.0001 80.3677 57.7561 80.7517 58.4281C81.1357 59.1001 81.6397 59.6281 82.2637 60.0121C82.9117 60.3961 83.6077 60.5881 84.3517 60.5881Z" fill="#C72172"/>
</svg>
